<svg viewBox="0 0 24 24">
  <path fill-rule="evenodd" d="M23.51 8.36c-3.31-.92-3.95-1.56-4.87-4.87a.67.67 0 0 0-1.28 0c-.92 3.31-1.55 3.95-4.87 4.87a.67.67 0 0 0 0 1.28c3.31.92 3.95 1.56 4.87 4.87a.67.67 0 0 0 1.28 0c.92-3.32 1.55-3.95 4.87-4.87a.67.67 0 0 0 0-1.28Zm-9.07 4.78a1.5 1.5 0 0 1 0 2.12l-3.75 3.75a1.5 1.5 0 0 1-2.13 0l-2.44-2.44-2.93 2.94a1.5 1.5 0 1 1-2.13-2.12l4-4a1.5 1.5 0 0 1 2.13 0l2.43 2.44 2.7-2.7a1.5 1.5 0 0 1 2.12 0ZM6.87 3.29c.54 1.93.91 2.3 2.84 2.84a.39.39 0 0 1 0 .74c-1.93.54-2.3.91-2.84 2.84a.39.39 0 0 1-.74 0c-.54-1.93-.91-2.3-2.84-2.84a.39.39 0 0 1 0-.74c1.93-.54 2.3-.91 2.84-2.84a.39.39 0 0 1 .74 0Z" clip-rule="evenodd"/>
</svg>